Exact Audio Copy V1.3 from 2. September 2016

EAC extraction logfile from 25. February 2017, 15:15

ONE OK ROCK / Skyfall

Used drive  : PIONEER BD-RW   BDR-S09   Adapter: 1  ID: 0

Read mode               : Secure
Utilize accurate stream : Yes
Defeat audio cache      : Yes
Make use of C2 pointers : No

Read offset correction                      : 667
Overread into Lead-In and Lead-Out          : No
Fill up missing offset samples with silence : Yes
Delete leading and trailing silent blocks   : No
Null samples used in CRC calculations       : Yes
Used interface                              : Native Win32 interface for Win NT & 2000

Used output format              : User Defined Encoder
Selected bitrate                : 896 kBit/s
Quality                         : High
Add ID3 tag                     : No
Command line compressor         : C:\Program Files\flac-1.3.2-win\win64\flac.exe
Additional command line options : -8 -V %source% -o %dest%


TOC of the extracted CD

     Track |   Start  |  Length  | Start sector | End sector 
    ---------------------------------------------------------
        1  |  0:00.00 |  3:33.42 |         0    |    16016   
        2  |  3:33.42 |  3:36.34 |     16017    |    32250   
        3  |  7:10.01 |  3:23.42 |     32251    |    47517   


Range status and errors

Selected range

     Filename C:\Users\DevilNew6661\Desktop\ONE OK ROCK - Skyfall.wav

     Peak level 100.0 %
     Extraction speed 3.7 X
     Range quality 100.0 %
     Copy CRC C768D605
     Copy OK

No errors occurred

End of status report

---- CUETools DB Plugin V2.1.6

[CTDB TOCID: HSlxjmxqsW8wpZ3tu9on6M47XMY-] found
Submit result: HSlxjmxqsW8wpZ3tu9on6M47XMY- has been confirmed
Track | CTDB Status
  1   | (2/2) Accurately ripped
  2   | (2/2) Accurately ripped
  3   | (2/2) Accurately ripped


==== Log checksum BEC093EAF927B7487F2E84663CE00568D7D841064BF2251023FA8E82FB59C296 ====
